<?xml version="1.0" standalone="no"?>
<!DOCTYPE svg PUBLIC "-//W3C//DTD SVG 20010904//EN"
 "http://www.w3.org/TR/2001/REC-SVG-20010904/DTD/svg10.dtd">
<svg version="1.0" xmlns="http://www.w3.org/2000/svg"
 width="512.000000pt" height="512.000000pt" viewBox="0 0 512.000000 512.000000"
 preserveAspectRatio="xMidYMid meet">
<metadata>
Created by potrace 1.16, written by Peter Selinger 2001-2019
</metadata>
<g transform="translate(0.000000,512.000000) scale(0.100000,-0.100000)"
fill="#000000" stroke="none">
<path d="M1693 4301 c-76 -55 -73 -20 -73 -748 l0 -648 24 -51 c40 -87 73
-106 448 -262 360 -149 396 -159 456 -128 36 19 78 65 91 99 7 19 11 234 11
647 l0 619 23 24 c26 29 597 280 624 275 17 -3 18 -34 21 -594 l2 -590 -22
-20 c-13 -11 -115 -60 -228 -109 -220 -94 -260 -121 -260 -176 0 -40 48 -89
87 -89 15 0 129 41 252 92 250 104 292 132 332 220 l24 53 3 600 c2 330 0 623
-3 652 -12 98 -80 163 -170 163 -45 0 -103 -21 -391 -141 -187 -77 -355 -153
-374 -168 -19 -15 -48 -50 -65 -76 l-30 -48 -5 -615 c-4 -542 -7 -616 -21
-625 -11 -7 -89 23 -308 119 -161 70 -304 136 -317 147 l-24 18 0 590 0 589
23 5 c15 4 78 -19 194 -70 95 -42 185 -75 203 -75 43 0 90 47 90 89 0 58 -38
83 -264 175 -244 100 -284 107 -353 57z"/>
<path d="M1314 3935 c-44 -30 -45 -40 -42 -676 l3 -605 30 -59 c17 -32 46 -71
65 -86 39 -31 962 -408 1050 -430 70 -16 209 -16 280 0 88 21 1011 399 1050
430 19 15 49 54 65 86 l30 59 3 425 c2 291 0 438 -8 463 -11 38 -49 68 -85 68
-32 0 -73 -30 -84 -61 -7 -21 -11 -170 -11 -449 0 -385 -1 -418 -17 -432 -21
-18 -884 -384 -957 -406 -33 -10 -80 -13 -150 -10 l-101 4 -470 198 c-259 109
-478 206 -487 214 -17 14 -18 56 -18 609 0 636 0 636 -49 663 -28 14 -73 12
-97 -5z"/>
<path d="M3707 3939 c-11 -6 -25 -26 -33 -44 -17 -41 -4 -86 31 -109 75 -49
165 26 131 109 -8 18 -23 38 -34 44 -26 14 -71 14 -95 0z"/>
<path d="M74 1676 c-50 -22 -74 -61 -74 -121 0 -39 6 -60 22 -80 34 -43 75
-55 196 -55 71 0 112 -4 120 -12 18 -18 14 -56 -7 -68 -11 -6 -87 -10 -175
-10 l-156 0 0 -46 0 -46 173 4 c191 3 209 9 247 71 37 59 16 139 -45 177 -28
17 -50 20 -148 20 -92 0 -119 3 -131 16 -20 20 -20 38 0 58 13 13 42 16 160
16 l144 0 0 45 0 45 -147 0 c-101 -1 -158 -5 -179 -14z"/>
<path d="M490 1465 l0 -225 45 0 45 0 0 225 0 225 -45 0 -45 0 0 -225z"/>
<path d="M755 1600 c-76 -77 -94 -90 -122 -90 -32 0 -33 -1 -33 -45 0 -44 1
-45 33 -45 28 0 46 -13 122 -90 l90 -90 57 0 c32 0 58 2 58 3 0 2 -50 53 -111
113 l-110 110 101 99 c55 55 105 102 111 103 5 2 9 8 9 13 0 5 -26 9 -58 9
l-57 0 -90 -90z"/>
<path d="M1000 1465 l0 -225 45 0 45 0 0 225 0 225 -45 0 -45 0 0 -225z"/>
<path d="M1170 1475 c0 -202 1 -215 19 -225 12 -6 95 -10 200 -10 l181 0 0 45
0 45 -155 0 -155 0 0 180 0 180 -45 0 -45 0 0 -215z"/>
<path d="M1620 1481 c0 -206 0 -210 22 -225 18 -13 56 -16 205 -16 l183 0 0
45 0 45 -160 0 -160 0 0 180 0 180 -45 0 -45 0 0 -209z"/>
<path d="M2323 1670 c-17 -10 -37 -28 -42 -39 -7 -11 -11 -83 -11 -169 0 -135
2 -152 20 -175 30 -38 77 -47 238 -47 l142 0 0 45 0 45 -149 0 c-91 0 -152 4
-156 10 -4 6 -6 62 -6 125 0 63 2 119 6 125 4 6 65 10 156 10 l149 0 0 45 0
45 -157 0 c-139 0 -162 -2 -190 -20z"/>
<path d="M2720 1569 c0 -142 11 -194 52 -243 51 -63 96 -79 230 -84 98 -4 122
-2 143 12 l25 16 0 210 0 210 -45 0 -45 0 0 -181 0 -181 -87 4 c-161 9 -176
28 -181 221 l-4 137 -44 0 -44 0 0 -121z"/>
<path d="M3268 1679 c-16 -9 -18 -31 -18 -224 l0 -215 45 0 45 0 0 180 0 180
130 0 130 0 0 -44 c0 -69 -13 -76 -136 -76 l-104 0 0 -45 c0 -42 2 -45 28 -45
19 0 51 -21 112 -75 l85 -75 63 0 c35 0 62 4 60 9 -1 4 -38 38 -80 74 l-77 65
32 6 c19 4 48 21 67 41 30 31 35 43 38 100 5 78 -10 120 -49 140 -34 18 -343
21 -371 4z"/>
<path d="M3711 1683 c0 -5 49 -105 107 -223 103 -207 108 -215 137 -215 28 0
33 8 136 215 59 118 108 218 108 223 1 4 -21 7 -47 7 l-49 0 -74 -156 -75
-156 -73 156 -74 156 -49 0 c-26 0 -48 -3 -47 -7z"/>
<path d="M4247 1672 c-14 -16 -17 -44 -17 -178 0 -242 12 -254 260 -254 l150
0 0 45 0 45 -144 0 c-79 0 -151 3 -160 6 -13 5 -16 27 -16 135 l0 129 160 0
160 0 0 45 0 45 -188 0 c-170 0 -191 -2 -205 -18z"/>
<path d="M4760 1672 c-87 -43 -104 -142 -36 -211 l36 -36 130 -3 c117 -3 131
-6 141 -23 14 -27 3 -56 -24 -63 -12 -3 -88 -6 -169 -6 l-148 0 0 -45 0 -45
153 0 c174 0 216 8 251 51 21 25 26 41 26 85 0 48 -4 59 -34 92 l-34 37 -129
3 c-70 2 -134 8 -140 14 -20 16 -15 56 6 68 11 5 83 10 160 10 l141 0 0 45 0
45 -147 0 c-121 0 -154 -3 -183 -18z"/>
<path d="M4340 1465 l0 -45 130 0 130 0 0 45 0 45 -130 0 -130 0 0 -45z"/>
</g>
</svg>
